<?xml version="1.0" encoding="UTF-8" standalone="no"?>
<svg
   xmlns:dc="http://purl.org/dc/elements/1.1/"
   xmlns:cc="http://creativecommons.org/ns#"
   xmlns:rdf="http://www.w3.org/1999/02/22-rdf-syntax-ns#"
   xmlns:svg="http://www.w3.org/2000/svg"
   xmlns="http://www.w3.org/2000/svg"
   version="1.0"
   height="344.0369"
   width="589.96655"
   id="svg2457">
  <metadata
     id="metadata2462">
    <rdf:RDF>
      <cc:Work
         rdf:about="">
        <dc:format>image/svg+xml</dc:format>
        <dc:type
           rdf:resource="http://purl.org/dc/dcmitype/StillImage" />
        <dc:title></dc:title>
      </cc:Work>
    </rdf:RDF>
  </metadata>
  <defs
     id="defs2460" />
  <path
     id="path2468"
     d="M 135.77165,7.0188979 L 12.652956,119.30296 L 132.33832,237.80296 L 201.10994,237.80296 L 211.33343,247.80296 L 127.87503,247.80296 C 115.193,235.11286 47.50124,167.73607 10,130.80296 L 10,344.03689 L 0,344.03689 L 0,67.802958 L 10,67.802958 L 10,107.79011 L 121.31165,6.9338869"
     style="fill:#000000" />
  <g
     transform="translate(-2,-13.197042)"
     id="layer1">
    <path
       transform="matrix(1.04314,0,0,1.04314,-10.802661,-6.1190471)"
       d="M 266.00001,200 A 51.272728,51.272728 0 0 1 214.72728,251.27273 51.272728,51.272728 0 0 1 163.45455,200 51.272728,51.272728 0 0 1 214.72728,148.72727 51.272728,51.272728 0 0 1 266.00001,200 Z"
       id="path2388"
       style="opacity:1;fill:none;fill-opacity:1;stroke:#000000;stroke-width:9.67789173;stroke-linejoin:miter;stroke-miterlimit:3.5;stroke-dasharray:none;stroke-dashoffset:0;stroke-opacity:1" />
  </g>
  <path
     id="path2390"
     d="M 212.11671,130.80296 C 228.93778,130.80296 266.58736,130.80296 283,130.80296 L 283,0.80295794 C 285.8759,0.058957942 291.05382,0.065467942 293,0.80295794 L 343.09091,119.30296 L 393,0.80295794 C 395.1965,-0.35907206 400.29248,-0.17216206 403,0.80295794 L 403,172.79653 L 444.16199,172.79653 L 473.42908,232.80296 L 520.94056,232.80296 L 550.20766,172.79653 L 589.96658,172.79653 L 589.96658,344.03689 L 580.00514,344.03689 L 580.00514,182.79011 L 557.43991,182.79011 L 499.71392,301.14593 C 497.7526,302.57985 496.18028,302.48666 494.07826,301.19075 L 436.33041,182.79011 L 393,182.79011 L 393,26.519768 C 389.53462,35.683778 354.79192,116.20036 345.21635,138.62114 C 343.57217,140.00833 342.70179,140.19994 340.84072,138.79244 C 329.26189,116.96695 301.0759,41.815958 293,26.519768 C 293.19782,39.023388 292.93593,137.2587 293,140.80296 C 279.9455,141.01319 231.63849,140.71786 220.89576,140.80296 M 516.06324,242.80296 L 478.42723,242.80296 L 497.18482,281.50945"
     style="fill:#000000" />
</svg>
