<svg version="1.1" viewBox="0 0 234 132" xmlns="http://www.w3.org/2000/svg">
 <style>
  * { fill: #134e4a; }
  @media (prefers-color-scheme: dark) {
   * { fill: #99f6e4; }
  }
 </style>
 <path d="m205 77 6-13h23v68h-16v-48h-2l-14 28c-3 6-13 6-16 0l-17-32h-20v-55l-13 25c-2 3-8 3-10 0l-13-25v39h-14c4 16-8 28-21 28h-35l-28-28v68h-16v-118h16v14l28-28h18l-45 44 31 32h10c-3-10 4-28 21-28h22v-48h14l16 34 18-34h14v64h14l6 13zm-15 13 5 10 5-10zm-111-28s-8 0-8 8c0 0 0 8 8 8 0 0 8 0 8-8 0 0-0.1-8-8-8"/>
</svg>
